<svg width="280" height="280" viewBox="0 0 280 280" fill="none" xmlns="http://www.w3.org/2000/svg">
<path d="M43.75 87.5H61.25V196.875H43.75V87.5ZM78.75 87.5H96.25V196.875H78.75V87.5ZM113.75 87.5H131.25V196.875H113.75V87.5ZM148.75 87.5H166.25V196.875H148.75V87.5ZM183.75 87.5H201.25V196.875H183.75V87.5Z" fill="white"/>
<path d="M236.25 96.2499V65.4006C236.216 61.9507 234.815 58.6551 232.355 56.2367C229.894 53.8182 226.575 52.4744 223.125 52.4999H21.8671C18.4172 52.4744 15.0979 53.8182 12.6374 56.2367C10.1769 58.6551 8.77606 61.9507 8.74213 65.4006V218.974C8.77606 222.424 10.1769 225.72 12.6374 228.138C15.0979 230.557 18.4172 231.9 21.8671 231.875H223.125C226.575 231.9 229.894 230.557 232.355 228.138C234.815 225.72 236.216 222.424 236.25 218.974V188.125H271.25V96.2499H236.25ZM253.75 170.625H218.75V214.375H26.2421V69.9999H218.75V113.75H253.75V170.625Z" fill="white"/>
</svg>
