<svg width="317" height="317" viewBox="0 0 317 317" fill="none" xmlns="http://www.w3.org/2000/svg">
<path d="M49.5312 99.0625H69.3438V222.891H49.5312V99.0625ZM89.1562 99.0625H108.969V222.891H89.1562V99.0625ZM128.781 99.0625H148.594V222.891H128.781V99.0625ZM168.406 99.0625H188.219V222.891H168.406V99.0625ZM208.031 99.0625H227.844V222.891H208.031V99.0625Z" fill="white"/>
<path d="M267.469 108.969V74.043C267.43 70.1372 265.844 66.4061 263.059 63.6681C260.273 60.93 256.515 59.4086 252.609 59.4375H24.7568C20.851 59.4086 17.0931 60.93 14.3075 63.6681C11.5218 66.4061 9.93588 70.1372 9.89746 74.043V247.91C9.93588 251.816 11.5218 255.547 14.3075 258.285C17.0931 261.023 20.851 262.544 24.7568 262.516H252.609C256.515 262.544 260.273 261.023 263.059 258.285C265.844 255.547 267.43 251.816 267.469 247.91V212.984H307.094V108.969H267.469ZM287.281 193.172H247.656V242.703H29.71V79.25H247.656V128.781H287.281V193.172Z" fill="white"/>
</svg>
