<svg width="229" height="228" viewBox="0 0 229 228" fill="none" xmlns="http://www.w3.org/2000/svg">
<g clip-path="url(#clip0_737_117)">
<path d="M221.332 74.276C222.798 78.0974 221.554 82.4075 218.533 85.2068L199.293 102.714C199.782 106.402 200.048 110.179 200.048 114C200.048 117.821 199.782 121.598 199.293 125.286L218.533 142.793C221.554 145.593 222.798 149.903 221.332 153.724C219.377 159.012 217.022 164.122 214.356 168.965L212.268 172.564C209.335 177.452 206.047 182.073 202.448 186.472C199.782 189.627 195.471 190.738 191.561 189.493L166.812 181.584C160.857 186.161 153.881 189.982 147.261 192.915L141.706 218.287C140.818 222.286 137.707 225.129 133.619 226.196C127.487 227.218 121.178 227.751 114.335 227.751C108.292 227.751 101.982 227.218 95.8505 226.196C91.7626 225.129 88.6522 222.286 87.7635 218.287L82.2093 192.915C75.1887 189.982 68.6125 186.161 62.6583 181.584L37.9264 189.493C33.9984 190.738 29.6661 189.627 27.0356 186.472C23.432 182.073 20.1439 177.452 17.2112 172.564L15.1317 168.965C12.4346 164.122 10.0885 159.012 8.12005 153.724C6.68039 149.903 7.89344 145.593 10.9416 142.793L30.1637 125.286C29.675 121.598 29.4217 117.821 29.4217 114C29.4217 110.179 29.675 106.402 30.1637 102.714L10.9416 85.2068C7.89344 82.4075 6.68039 78.1418 8.12005 74.276C10.0885 68.9884 12.439 63.8785 15.1317 59.0352L17.2068 55.436C20.1439 50.5483 23.432 45.9272 27.0356 41.5504C29.6661 38.3734 33.9984 37.2714 37.9264 38.5245L62.6583 46.4159C68.6125 41.8215 75.1887 38.0001 82.2093 35.0986L87.7635 9.72679C88.6522 5.69219 91.7626 2.4885 95.8505 1.80866C101.982 0.782676 108.292 0.249023 114.735 0.249023C121.178 0.249023 127.487 0.782676 133.619 1.80866C137.707 2.4885 140.818 5.69219 141.706 9.72679L147.261 35.0986C153.881 38.0001 160.857 41.8215 166.812 46.4159L191.561 38.5245C195.471 37.2714 199.782 38.3734 202.448 41.5504C206.047 45.9272 209.335 50.5483 212.268 55.436L214.356 59.0352C217.022 63.8785 219.377 68.9884 221.332 74.276V74.276ZM114.735 149.547C134.375 149.547 150.282 133.64 150.282 113.6C150.282 94.3602 134.375 78.0529 114.735 78.0529C95.0951 78.0529 79.1878 94.3602 79.1878 113.6C79.1878 133.64 95.0951 149.547 114.735 149.547Z" fill="white"/>
</g>
<defs>
<clipPath id="clip0_737_117">
<rect width="227.502" height="227.502" fill="white" transform="translate(0.983887 0.249023)"/>
</clipPath>
</defs>
</svg>
