<svg width="43" height="44" viewBox="0 0 43 44" fill="none" xmlns="http://www.w3.org/2000/svg">
<g clip-path="url(#clip0_859_88)">
<path d="M32.6419 0.892458C32.7667 0.767319 32.915 0.668035 33.0782 0.600293C33.2415 0.53255 33.4165 0.497681 33.5932 0.497681C33.77 0.497681 33.945 0.53255 34.1082 0.600293C34.2715 0.668035 34.4198 0.767319 34.5446 0.892458L42.6071 8.95496C42.7322 9.07978 42.8315 9.22806 42.8993 9.39132C42.967 9.55457 43.0019 9.72958 43.0019 9.90633C43.0019 10.0831 42.967 10.2581 42.8993 10.4213C42.8315 10.5846 42.7322 10.7329 42.6071 10.8577L15.7321 37.7327C15.6031 37.8608 15.4495 37.9613 15.2806 38.0283L1.8431 43.4033C1.59891 43.5011 1.33139 43.525 1.07372 43.4721C0.816057 43.4193 0.579568 43.292 0.393576 43.106C0.207583 42.92 0.0802671 42.6835 0.0274108 42.4258C-0.0254455 42.1682 -0.00151735 41.9007 0.0962288 41.6565L5.47123 28.219C5.53822 28.05 5.63879 27.8964 5.76685 27.7675L32.6419 0.892458ZM30.1183 7.21883L36.2807 13.3813L39.7557 9.90633L33.5932 3.7439L30.1183 7.21883ZM34.3807 15.2813L28.2182 9.1189L10.7495 26.5876V27.3751H12.0932C12.4496 27.3751 12.7914 27.5167 13.0434 27.7687C13.2954 28.0207 13.437 28.3624 13.437 28.7188V30.0626H14.7807C15.1371 30.0626 15.4789 30.2042 15.7309 30.4562C15.9829 30.7082 16.1245 31.0499 16.1245 31.4063V32.7501H16.9119L34.3807 15.2813ZM8.14798 29.1891L7.8631 29.474L3.7566 39.743L14.0255 35.6365L14.3104 35.3516C14.0541 35.2558 13.8331 35.0841 13.677 34.8593C13.5209 34.6345 13.4372 34.3675 13.437 34.0938V32.7501H12.0932C11.7368 32.7501 11.3951 32.6085 11.1431 32.3565C10.8911 32.1045 10.7495 31.7627 10.7495 31.4063V30.0626H9.40573C9.13209 30.0624 8.86503 29.9786 8.64027 29.8225C8.41551 29.6665 8.24375 29.4455 8.14798 29.1891Z" fill="white"/>
</g>
<defs>
<clipPath id="clip0_859_88">
<rect width="43" height="43" fill="white" transform="translate(0 0.5)"/>
</clipPath>
</defs>
</svg>
