<svg width="61" height="62" viewBox="0 0 61 62" fill="none" xmlns="http://www.w3.org/2000/svg">
<path d="M50.5292 28.4089H9.96127C8.63923 28.4089 7.5675 29.4806 7.5675 30.8026V31.0546C7.5675 32.3767 8.63923 33.4484 9.96127 33.4484H50.5292C51.8512 33.4484 52.923 32.3767 52.923 31.0546V30.8026C52.923 29.4806 51.8512 28.4089 50.5292 28.4089Z" fill="black"/>
<path d="M50.5292 41.0077H9.96127C8.63923 41.0077 7.5675 42.0794 7.5675 43.4014V43.6534C7.5675 44.9754 8.63923 46.0471 9.96127 46.0471H50.5292C51.8512 46.0471 52.923 44.9754 52.923 43.6534V43.4014C52.923 42.0794 51.8512 41.0077 50.5292 41.0077Z" fill="black"/>
<path d="M50.5292 15.8102H9.96127C8.63923 15.8102 7.5675 16.8819 7.5675 18.2039V18.4559C7.5675 19.7779 8.63923 20.8497 9.96127 20.8497H50.5292C51.8512 20.8497 52.923 19.7779 52.923 18.4559V18.2039C52.923 16.8819 51.8512 15.8102 50.5292 15.8102Z" fill="black"/>
</svg>
