<svg width="62" height="62" viewBox="0 0 62 62" fill="none" xmlns="http://www.w3.org/2000/svg">
<path d="M51.0501 28.4088H10.4822C9.16013 28.4088 8.08841 29.4805 8.08841 30.8026V31.0545C8.08841 32.3766 9.16013 33.4483 10.4822 33.4483H51.0501C52.3722 33.4483 53.4439 32.3766 53.4439 31.0545V30.8026C53.4439 29.4805 52.3722 28.4088 51.0501 28.4088Z" fill="white"/>
<path d="M51.0501 41.0077H10.4822C9.16013 41.0077 8.08841 42.0794 8.08841 43.4015V43.6534C8.08841 44.9755 9.16013 46.0472 10.4822 46.0472H51.0501C52.3722 46.0472 53.4439 44.9755 53.4439 43.6534V43.4015C53.4439 42.0794 52.3722 41.0077 51.0501 41.0077Z" fill="white"/>
<path d="M51.0501 15.8102H10.4822C9.16013 15.8102 8.08841 16.8819 8.08841 18.2039V18.4559C8.08841 19.778 9.16013 20.8497 10.4822 20.8497H51.0501C52.3722 20.8497 53.4439 19.778 53.4439 18.4559V18.2039C53.4439 16.8819 52.3722 15.8102 51.0501 15.8102Z" fill="white"/>
</svg>
