<svg width="52" height="52" viewBox="0 0 52 52" fill="none" xmlns="http://www.w3.org/2000/svg">
<path d="M25.9998 4.33331C20.0263 4.33331 15.1665 9.19315 15.1665 15.1666V19.5H12.9998C10.61 19.5 8.6665 21.4435 8.6665 23.8333V43.3333C8.6665 45.7231 10.61 47.6666 12.9998 47.6666H38.9998C41.3897 47.6666 43.3332 45.7231 43.3332 43.3333V23.8333C43.3332 21.4435 41.3897 19.5 38.9998 19.5H36.8332V15.1666C36.8332 9.19315 31.9733 4.33331 25.9998 4.33331ZM19.4998 15.1666C19.4998 11.583 22.4162 8.66665 25.9998 8.66665C29.5835 8.66665 32.4998 11.583 32.4998 15.1666V19.5H19.4998V15.1666ZM39.0042 43.3333H28.1665V38.3976C29.4557 37.6458 30.3332 36.2635 30.3332 34.6666C30.3332 32.2768 28.3897 30.3333 25.9998 30.3333C23.61 30.3333 21.6665 32.2768 21.6665 34.6666C21.6665 36.2613 22.544 37.6458 23.8332 38.3976V43.3333H12.9998V23.8333H38.9998L39.0042 43.3333V43.3333Z" fill="white"/>
</svg>
