<svg width="31" height="31" viewBox="0 0 31 31" fill="none" xmlns="http://www.w3.org/2000/svg">
<g clip-path="url(#clip0_737_232)">
<path d="M22.3625 19.6419C24.2011 17.133 25.0247 14.0223 24.6683 10.9322C24.3119 7.8421 22.8019 5.00053 20.4404 2.97595C18.0789 0.951381 15.04 -0.106883 11.9318 0.0128834C8.82352 0.13265 5.8751 1.42161 3.67639 3.6219C1.47767 5.82219 0.190819 8.77153 0.0732762 11.8799C-0.0442663 14.9882 1.01617 18.0263 3.04244 20.3864C5.0687 22.7464 7.91135 24.2544 11.0017 24.6086C14.092 24.9627 17.2021 24.137 19.7098 22.2965H19.7079C19.7649 22.3725 19.8256 22.4446 19.894 22.5149L27.2046 29.8255C27.5606 30.1818 28.0436 30.3821 28.5473 30.3822C29.051 30.3824 29.5342 30.1825 29.8905 29.8264C30.2468 29.4704 30.4471 28.9874 30.4472 28.4837C30.4474 27.98 30.2475 27.4968 29.8914 27.1405L22.5809 19.8299C22.513 19.7612 22.44 19.6977 22.3625 19.64V19.6419ZM22.8524 12.3428C22.8524 13.7142 22.5823 15.0723 22.0574 16.3394C21.5326 17.6065 20.7633 18.7578 19.7935 19.7276C18.8237 20.6973 17.6724 21.4666 16.4053 21.9915C15.1382 22.5163 13.7802 22.7864 12.4087 22.7864C11.0372 22.7864 9.67916 22.5163 8.41208 21.9915C7.14499 21.4666 5.99368 20.6973 5.0239 19.7276C4.05411 18.7578 3.28483 17.6065 2.75999 16.3394C2.23515 15.0723 1.96501 13.7142 1.96501 12.3428C1.96501 9.57291 3.06533 6.91652 5.0239 4.95795C6.98247 2.99937 9.63886 1.89906 12.4087 1.89906C15.1785 1.89906 17.8349 2.99937 19.7935 4.95795C21.7521 6.91652 22.8524 9.57291 22.8524 12.3428V12.3428Z" fill="white"/>
</g>
<defs>
<clipPath id="clip0_737_232">
<rect width="30.3817" height="30.3817" fill="white" transform="translate(0.0664062)"/>
</clipPath>
</defs>
</svg>
