<svg width="236" height="235" viewBox="0 0 236 235" fill="none" xmlns="http://www.w3.org/2000/svg">
<g clip-path="url(#clip0_737_109)">
<path d="M117.807 219.99C90.5961 219.99 64.4995 209.18 45.2582 189.939C26.017 170.697 15.2074 144.601 15.2074 117.39C15.2074 90.1784 26.017 64.0817 45.2582 44.8405C64.4995 25.5993 90.5961 14.7897 117.807 14.7897C145.019 14.7897 171.115 25.5993 190.356 44.8405C209.598 64.0817 220.407 90.1784 220.407 117.39C220.407 144.601 209.598 170.697 190.356 189.939C171.115 209.18 145.019 219.99 117.807 219.99ZM117.807 234.647C148.906 234.647 178.731 222.293 200.721 200.303C222.711 178.313 235.064 148.488 235.064 117.39C235.064 86.2911 222.711 56.4663 200.721 34.4764C178.731 12.4864 148.906 0.132568 117.807 0.132568C86.7088 0.132568 56.884 12.4864 34.8941 34.4764C12.9041 56.4663 0.550293 86.2911 0.550293 117.39C0.550293 148.488 12.9041 178.313 34.8941 200.303C56.884 222.293 86.7088 234.647 117.807 234.647V234.647Z" fill="white"/>
<path d="M117.807 58.761C119.751 58.761 121.615 59.5332 122.989 60.9075C124.364 62.2819 125.136 64.146 125.136 66.0896V110.061H169.107C171.051 110.061 172.915 110.833 174.289 112.207C175.664 113.582 176.436 115.446 176.436 117.39C176.436 119.333 175.664 121.197 174.289 122.572C172.915 123.946 171.051 124.718 169.107 124.718H125.136V168.69C125.136 170.633 124.364 172.497 122.989 173.872C121.615 175.246 119.751 176.018 117.807 176.018C115.864 176.018 114 175.246 112.625 173.872C111.251 172.497 110.479 170.633 110.479 168.69V124.718H66.5073C64.5636 124.718 62.6996 123.946 61.3252 122.572C59.9508 121.197 59.1787 119.333 59.1787 117.39C59.1787 115.446 59.9508 113.582 61.3252 112.207C62.6996 110.833 64.5636 110.061 66.5073 110.061H110.479V66.0896C110.479 64.146 111.251 62.2819 112.625 60.9075C114 59.5332 115.864 58.761 117.807 58.761V58.761Z" fill="white"/>
</g>
<defs>
<clipPath id="clip0_737_109">
<rect width="234.514" height="234.514" fill="white" transform="translate(0.550293 0.132568)"/>
</clipPath>
</defs>
</svg>
