<svg width="55" height="55" viewBox="0 0 55 55" fill="none" xmlns="http://www.w3.org/2000/svg">
<path d="M43.5417 25.2084H16.3625L24.6813 15.2167C25.0703 14.7487 25.2574 14.1454 25.2015 13.5394C25.1457 12.9334 24.8514 12.3745 24.3834 11.9855C23.9154 11.5965 23.312 11.4094 22.706 11.4652C22.1001 11.5211 21.5411 11.8154 21.1521 12.2834L9.69377 26.0334C9.61668 26.1428 9.54774 26.2577 9.48752 26.3772C9.48752 26.4917 9.48752 26.5605 9.3271 26.6751C9.22323 26.9378 9.16884 27.2175 9.16669 27.5001C9.16884 27.7826 9.22323 28.0623 9.3271 28.3251C9.3271 28.4397 9.3271 28.5084 9.48752 28.623C9.54774 28.7425 9.61668 28.8574 9.69377 28.9667L21.1521 42.7167C21.3676 42.9754 21.6374 43.1835 21.9424 43.3261C22.2474 43.4686 22.58 43.5423 22.9167 43.5417C23.4521 43.5428 23.9711 43.3563 24.3834 43.0147C24.6154 42.8223 24.8072 42.586 24.9478 42.3194C25.0884 42.0527 25.175 41.761 25.2027 41.4608C25.2304 41.1607 25.1986 40.858 25.1091 40.5702C25.0196 40.2823 24.8742 40.015 24.6813 39.7834L16.3625 29.7917H43.5417C44.1495 29.7917 44.7324 29.5503 45.1621 29.1205C45.5919 28.6908 45.8334 28.1079 45.8334 27.5001C45.8334 26.8923 45.5919 26.3094 45.1621 25.8796C44.7324 25.4498 44.1495 25.2084 43.5417 25.2084Z" fill="white"/>
</svg>
