<svg width="56" height="56" viewBox="0 0 56 56" fill="none" xmlns="http://www.w3.org/2000/svg">
<path d="M44.3334 25.6667H16.6601L25.1301 15.4934C25.5262 15.0169 25.7167 14.4025 25.6598 13.7856C25.6029 13.1686 25.3033 12.5994 24.8268 12.2034C24.3503 11.8073 23.7359 11.6168 23.1189 11.6737C22.502 11.7305 21.9328 12.0302 21.5368 12.5067L9.8701 26.5067C9.79161 26.6181 9.72142 26.7351 9.6601 26.8567C9.6601 26.9734 9.6601 27.0434 9.49677 27.16C9.39101 27.4276 9.33563 27.7124 9.33344 28C9.33563 28.2877 9.39101 28.5725 9.49677 28.84C9.49677 28.9567 9.49677 29.0267 9.6601 29.1434C9.72142 29.265 9.79161 29.382 9.8701 29.4934L21.5368 43.4934C21.7562 43.7568 22.0309 43.9686 22.3414 44.1138C22.6519 44.259 22.9906 44.3339 23.3334 44.3334C23.8786 44.3344 24.407 44.1446 24.8268 43.7967C25.063 43.6008 25.2583 43.3603 25.4015 43.0888C25.5447 42.8173 25.6328 42.5203 25.661 42.2146C25.6892 41.909 25.6568 41.6009 25.5657 41.3078C25.4746 41.0147 25.3266 40.7425 25.1301 40.5067L16.6601 30.3334H44.3334C44.9523 30.3334 45.5458 30.0875 45.9834 29.65C46.4209 29.2124 46.6668 28.6189 46.6668 28C46.6668 27.3812 46.4209 26.7877 45.9834 26.3501C45.5458 25.9125 44.9523 25.6667 44.3334 25.6667Z" fill="black"/>
</svg>
