<svg width="32" height="32" viewBox="0 0 32 32" fill="none" xmlns="http://www.w3.org/2000/svg">
<g clip-path="url(#clip0_857_14)">
<path d="M24.2916 0.291957C24.3845 0.19883 24.4949 0.124944 24.6163 0.0745315C24.7378 0.0241186 24.8681 -0.00183105 24.9996 -0.00183105C25.1311 -0.00183105 25.2614 0.0241186 25.3829 0.0745315C25.5044 0.124944 25.6147 0.19883 25.7076 0.291957L31.7076 6.29196C31.8007 6.38485 31.8746 6.4952 31.925 6.61669C31.9755 6.73818 32.0014 6.86842 32.0014 6.99996C32.0014 7.13149 31.9755 7.26173 31.925 7.38322C31.8746 7.50471 31.8007 7.61507 31.7076 7.70796L11.7076 27.708C11.6116 27.8033 11.4973 27.8781 11.3716 27.928L1.37161 31.928C1.18988 32.0007 0.990804 32.0185 0.799051 31.9792C0.607299 31.9398 0.431307 31.8451 0.292894 31.7067C0.154481 31.5683 0.0597336 31.3923 0.0203987 31.2005C-0.0189362 31.0088 -0.00112919 30.8097 0.0716121 30.628L4.07161 20.628C4.12147 20.5022 4.19631 20.3879 4.29161 20.292L24.2916 0.291957ZM22.4136 4.99996L26.9996 9.58596L29.5856 6.99996L24.9996 2.41396L22.4136 4.99996ZM25.5856 11L20.9996 6.41396L7.99961 19.414V20H8.99961C9.26483 20 9.51918 20.1053 9.70672 20.2928C9.89425 20.4804 9.99961 20.7347 9.99961 21V22H10.9996C11.2648 22 11.5192 22.1053 11.7067 22.2928C11.8943 22.4804 11.9996 22.7347 11.9996 23V24H12.5856L25.5856 11ZM6.06361 21.35L5.85161 21.562L2.79561 29.204L10.4376 26.148L10.6496 25.936C10.4589 25.8647 10.2944 25.7369 10.1782 25.5696C10.0621 25.4023 9.99976 25.2036 9.99961 25V24H8.99961C8.7344 24 8.48004 23.8946 8.29251 23.7071C8.10497 23.5195 7.99961 23.2652 7.99961 23V22H6.99961C6.79597 21.9998 6.59723 21.9375 6.42997 21.8213C6.2627 21.7052 6.13489 21.5407 6.06361 21.35Z" fill="white"/>
</g>
<defs>
<clipPath id="clip0_857_14">
<rect width="32" height="32" fill="white"/>
</clipPath>
</defs>
</svg>
