<svg width="43" height="42" viewBox="0 0 43 42" fill="none" xmlns="http://www.w3.org/2000/svg">
<path d="M37.886 15.2689V30.0284C37.886 31.4015 37.3316 32.7184 36.3448 33.6894C35.358 34.6603 34.0196 35.2058 32.6241 35.2058H9.47143C8.07587 35.2058 6.73747 34.6603 5.75067 33.6894C4.76386 32.7184 4.20947 31.4015 4.20947 30.0284V15.2689L20.5131 24.7082C20.6751 24.8022 20.8597 24.8518 21.0477 24.8518C21.2358 24.8518 21.4204 24.8022 21.5824 24.7082L37.886 15.2689ZM32.6241 8.28369C33.9188 8.28349 35.1682 8.75298 36.1332 9.60233C37.0982 10.4517 37.711 11.6213 37.8545 12.8874L21.0477 22.6145L4.24104 12.8874C4.3845 11.6213 4.99734 10.4517 5.96233 9.60233C6.92731 8.75298 8.17668 8.28349 9.47143 8.28369H32.6241Z" fill="white"/>
</svg>
