<svg width="46" height="46" viewBox="0 0 46 46" fill="none" xmlns="http://www.w3.org/2000/svg">
<path d="M41.6967 24.0072C41.5304 24.0082 41.3656 23.9763 41.2117 23.9134C41.0577 23.8505 40.9177 23.7579 40.7996 23.6408L22.7437 5.57219L4.68771 23.6408C4.44599 23.8478 4.13507 23.9559 3.81707 23.9437C3.49906 23.9314 3.19741 23.7996 2.97238 23.5745C2.74735 23.3495 2.61552 23.0478 2.60324 22.7298C2.59095 22.4118 2.69912 22.1009 2.90612 21.8592L21.8592 2.90612C22.0959 2.67079 22.4162 2.5387 22.75 2.5387C23.0838 2.5387 23.404 2.67079 23.6408 2.90612L42.5938 21.8592C42.7677 22.0366 42.8855 22.2613 42.9323 22.5052C42.9792 22.7491 42.9532 23.0014 42.8574 23.2306C42.7617 23.4598 42.6006 23.6557 42.3941 23.7938C42.1877 23.932 41.9451 24.0062 41.6967 24.0072Z" fill="black"/>
<path d="M22.7437 9.84296L7.58124 25.056V40.4332C7.58124 41.1034 7.84748 41.7462 8.3214 42.2201C8.79532 42.694 9.43809 42.9603 10.1083 42.9603H18.9531V30.3249H26.5343V42.9603H35.3791C36.0493 42.9603 36.6921 42.694 37.166 42.2201C37.6399 41.7462 37.9061 41.1034 37.9061 40.4332V24.9675L22.7437 9.84296Z" fill="black"/>
</svg>
