<svg width="37" height="37" viewBox="0 0 37 37" fill="none" xmlns="http://www.w3.org/2000/svg">
<g clip-path="url(#clip0_857_12)">
<path d="M30.104 7.39848C31.9725 11.4191 31.5486 16.1521 29.4797 19.9985C27.7823 23.1543 25.2493 25.7644 23.1619 28.6534C22.2076 29.9762 21.2441 31.3514 20.5889 32.8576C20.3715 33.3586 20.1834 33.872 19.9984 34.3869C19.8119 34.9003 19.6531 35.4244 19.4743 35.9409C19.3062 36.425 19.1104 36.9954 18.5076 37H18.4968C17.7784 36.9985 17.6042 36.1829 17.4254 35.6326C16.9875 34.2852 16.5297 32.9917 15.8544 31.7399C15.0682 30.2845 14.0892 28.9387 13.0948 27.6221L30.104 7.39848ZM13.1735 11.8786L7.07001 19.1352C8.18617 21.5094 9.87738 23.549 11.4961 25.5794C11.8769 26.0573 12.2577 26.5383 12.6323 27.0224L20.316 17.888L20.2713 17.9034C17.5873 18.8299 14.581 17.4548 13.5003 14.8401C13.3525 14.4852 13.2444 14.115 13.1781 13.7363C13.081 13.0626 13.0594 12.5631 13.1719 11.8894L13.1735 11.8786ZM8.46676 4.85473L8.46213 4.8609C5.46051 8.66265 4.94559 13.9259 6.74009 18.3813L14.117 9.61077L14.0275 9.53369L8.46676 4.85473ZM22.6023 0.672192L16.6854 7.70682C16.699 7.701 16.7129 7.69586 16.727 7.6914C19.1937 6.84194 21.9733 7.92265 23.2328 10.1981C23.5042 10.6899 23.7308 11.2511 23.814 11.8092C23.9189 12.4968 23.9451 13.0009 23.8325 13.69L23.8279 13.7147L29.7418 6.68315C28.1963 3.86444 25.6558 1.72295 22.6162 0.676817L22.6023 0.672192ZM14.5933 9.04653L21.833 0.4394L21.7605 0.4209C20.6893 0.139308 19.586 -0.00216374 18.4783 2.50118e-05C16.6848 0.0168242 14.914 0.404308 13.2774 1.13814C11.6407 1.87197 10.1735 2.9363 8.9678 4.26428L8.94313 4.29202L14.5933 9.04653Z" fill="white"/>
</g>
<defs>
<clipPath id="clip0_857_12">
<rect width="37" height="37" fill="white"/>
</clipPath>
</defs>
</svg>
