<svg width="20" height="20" viewBox="0 0 20 20" fill="none" xmlns="http://www.w3.org/2000/svg">
<path d="M10 19C14.9706 19 19 14.9706 19 10C19 5.02944 14.9706 1 10 1C5.02944 1 1 5.02944 1 10C1 14.9706 5.02944 19 10 19Z" stroke="white" stroke-width="2" stroke-linecap="round" stroke-linejoin="round"/>
<path d="M9.99998 1V19M9.49998 1C8.09368 2.04165 6.95106 3.39835 6.16374 4.9613C5.37641 6.52425 4.96631 8.24995 4.96631 10C4.96631 11.7501 5.37641 13.4758 6.16374 15.0387C6.95106 16.6017 8.09368 17.9584 9.49998 19V1ZM10.5 1C11.9063 2.04165 13.0489 3.39835 13.8362 4.9613C14.6235 6.52425 15.0336 8.24995 15.0336 10C15.0336 11.7501 14.6235 13.4758 13.8362 15.0387C13.0489 16.6017 11.9063 17.9584 10.5 19V1Z" stroke="white" stroke-width="2" stroke-linecap="round" stroke-linejoin="round"/>
</svg>
