<svg width="40" height="40" viewBox="0 0 40 40" fill="none" xmlns="http://www.w3.org/2000/svg">
<path d="M27.6167 36.6667C28.0593 36.6692 28.4981 36.5836 28.9073 36.4147C29.3165 36.2459 29.6879 35.9973 30 35.6833L34.5167 31.1667C34.8271 30.8544 35.0013 30.432 35.0013 29.9917C35.0013 29.5514 34.8271 29.1289 34.5167 28.8167L27.85 22.15C27.5377 21.8396 27.1153 21.6653 26.675 21.6653C26.2347 21.6653 25.8123 21.8396 25.5 22.15L22.8333 24.8C20.9871 24.3077 19.2772 23.4015 17.8333 22.15C16.5852 20.7038 15.6794 18.9947 15.1833 17.15L17.8333 14.4833C18.1438 14.1711 18.318 13.7486 18.318 13.3083C18.318 12.868 18.1438 12.4456 17.8333 12.1333L11.1667 5.46666C10.8544 5.15624 10.432 4.982 9.99167 4.982C9.55136 4.982 9.12894 5.15624 8.81667 5.46666L4.31667 9.99999C4.00272 10.3121 3.75408 10.6835 3.58525 11.0927C3.41642 11.5019 3.33078 11.9407 3.33334 12.3833C3.48454 18.7871 6.04346 24.8988 10.5 29.5C15.1012 33.9565 21.2129 36.5155 27.6167 36.6667V36.6667ZM10 9.01666L14.3167 13.3333L12.1667 15.4833C11.963 15.6741 11.8106 15.9129 11.7232 16.1779C11.6358 16.4429 11.6164 16.7255 11.6667 17C12.2896 19.7839 13.6085 22.3644 15.5 24.5C17.6339 26.3939 20.2151 27.7131 23 28.3333C23.2703 28.3898 23.5504 28.3783 23.8151 28.2997C24.0799 28.2212 24.3209 28.0781 24.5167 27.8833L26.6667 25.6833L30.9833 30L27.65 33.3333C22.1229 33.191 16.8492 30.9852 12.8667 27.15C9.02153 23.1658 6.80935 17.8852 6.66667 12.35L10 9.01666ZM33.3333 18.3333H36.6667C36.7099 16.3517 36.3514 14.3818 35.6129 12.5423C34.8744 10.7029 33.7711 9.03207 32.3695 7.63048C30.9679 6.2289 29.2971 5.1256 27.4577 4.38708C25.6182 3.64856 23.6483 3.29011 21.6667 3.33333V6.66666C23.2132 6.61316 24.7542 6.87834 26.1938 7.44572C27.6335 8.01309 28.9411 8.87053 30.0353 9.96473C31.1295 11.0589 31.9869 12.3665 32.5543 13.8062C33.1217 15.2458 33.3868 16.7868 33.3333 18.3333Z" fill="white"/>
<path d="M21.6667 13.3333C25.1667 13.3333 26.6667 14.8333 26.6667 18.3333H30C30 12.9667 27.0333 10 21.6667 10V13.3333Z" fill="white"/>
</svg>
