<?xml version="1.0" standalone="no"?>
<!DOCTYPE svg PUBLIC "-//W3C//DTD SVG 20010904//EN"
 "http://www.w3.org/TR/2001/REC-SVG-20010904/DTD/svg10.dtd">
<svg version="1.0" xmlns="http://www.w3.org/2000/svg"
 width="1280.000000pt" height="292.000000pt" viewBox="0 0 1280.000000 292.000000"
 preserveAspectRatio="xMidYMid meet">

<g transform="translate(0.000000,292.000000) scale(0.100000,-0.100000)"
fill="#FFFFFF" stroke="none">
<path d="M990 2505 c-32 -34 -68 -44 -205 -55 -168 -13 -259 -52 -361 -154
-133 -133 -165 -285 -101 -474 40 -117 145 -268 329 -474 260 -291 336 -410
357 -563 11 -73 -1 -180 -24 -225 -55 -106 -175 -152 -300 -115 -119 34 -229
185 -277 380 l-21 85 -49 0 -48 0 0 -300 0 -300 47 0 c35 0 53 6 70 22 32 30
81 29 163 -4 159 -64 333 -62 470 4 150 73 267 227 289 379 19 136 -13 297
-87 429 -50 91 -94 148 -277 364 -88 104 -193 228 -233 275 -181 214 -199 408
-47 513 61 42 118 53 190 38 86 -17 143 -78 210 -223 l50 -109 40 7 c54 8 60
16 47 67 -7 24 -32 126 -57 228 -25 102 -48 195 -51 208 -5 19 -13 22 -53 22
-38 0 -52 -5 -71 -25z"/>
<path d="M8324 2504 c-25 -34 -104 -54 -210 -54 -246 0 -408 -100 -497 -307
-47 -111 -52 -188 -51 -808 0 -629 3 -663 64 -792 57 -122 138 -195 263 -235
49 -17 89 -21 192 -21 166 -1 243 21 338 96 21 16 39 28 41 26 1 -2 20 -26 41
-52 33 -41 43 -48 69 -45 l31 3 5 505 c3 278 8 510 12 516 4 6 21 17 38 24 30
12 31 15 28 64 l-3 51 -290 0 -290 0 -3 -52 -3 -52 38 -6 c82 -14 117 -30 140
-64 23 -34 23 -37 23 -367 0 -281 -3 -341 -16 -381 -36 -107 -113 -160 -217
-151 -66 5 -107 33 -144 96 l-28 47 0 795 0 795 29 53 c40 71 93 117 157 136
66 20 92 20 156 1 79 -24 144 -110 217 -287 16 -41 31 -46 85 -27 22 8 30 16
27 28 -4 14 -23 91 -96 399 l-22 92 -52 0 c-44 0 -55 -4 -72 -26z"/>
<path d="M2259 1869 c-46 -46 -93 -207 -105 -361 -4 -49 -9 -88 -11 -88 -2 0
-30 17 -61 39 -264 179 -357 102 -189 -158 26 -39 47 -73 47 -75 0 -2 -57 -6
-127 -9 -182 -8 -327 -49 -353 -97 -33 -62 60 -118 259 -155 46 -8 102 -15
125 -15 22 0 51 -3 63 -6 22 -6 21 -8 -21 -68 -87 -122 -119 -204 -96 -246 11
-20 18 -22 64 -18 53 4 143 44 222 99 23 16 47 29 53 29 7 0 11 -28 11 -75 0
-157 47 -353 96 -402 28 -27 41 -28 72 -5 47 36 97 236 104 410 1 39 4 72 6
72 2 0 30 -18 63 -41 80 -54 177 -99 215 -99 43 0 68 30 60 72 -9 47 -60 153
-103 210 -19 27 -34 51 -32 52 2 2 60 9 128 15 139 13 262 36 302 57 120 62
50 125 -191 174 -56 11 -123 20 -149 21 -25 1 -56 4 -69 7 -22 7 -22 7 14 57
41 56 104 181 104 205 0 30 -30 60 -60 60 -43 0 -125 -34 -207 -84 l-70 -43
-6 131 c-6 176 -32 280 -80 334 -26 28 -51 28 -78 1z m63 -26 c39 -45 67 -197
68 -364 l0 -106 -99 2 c-54 2 -104 6 -110 9 -25 16 25 326 67 411 16 33 41 65
52 65 4 0 14 -8 22 -17z m-371 -342 c55 -28 138 -81 188 -120 l25 -19 -40 -20
c-44 -22 -90 -63 -117 -102 -11 -15 -20 -21 -25 -15 -108 156 -142 221 -142
273 0 28 3 32 28 32 15 0 52 -13 83 -29z m769 -30 c0 -16 -9 -48 -20 -72 -26
-58 -113 -184 -127 -184 -7 0 -22 16 -35 35 -13 19 -47 51 -76 70 l-53 34 23
18 c79 60 215 127 261 127 23 1 27 -3 27 -28z m-755 -318 c-7 -35 -8 -110 -2
-157 2 -17 -5 -19 -78 -17 -143 4 -330 48 -388 93 -66 50 138 115 367 117
l108 1 -7 -37z m869 1 c134 -23 236 -61 236 -89 0 -19 -46 -42 -122 -60 -66
-16 -332 -39 -353 -31 -9 3 -9 16 -1 55 7 37 7 63 -1 93 -6 24 -9 46 -6 51 6
10 127 1 247 -19z m-830 -241 c17 -34 59 -74 105 -101 l34 -21 -85 -55 c-104
-68 -172 -98 -212 -94 -42 4 -43 25 -7 100 34 69 125 198 141 198 5 0 16 -12
24 -27z m629 -55 c61 -94 87 -150 90 -193 2 -25 -2 -31 -21 -33 -13 -2 -42 4
-64 13 -46 18 -171 96 -205 127 l-22 20 47 32 c25 17 60 50 77 73 16 23 33 42
37 42 4 1 31 -36 61 -81z m-253 -174 c0 -203 -70 -442 -117 -402 -45 37 -81
181 -90 358 l-6 135 107 0 106 0 0 -91z"/>
<path d="M11852 1867 c-47 -50 -93 -208 -108 -369 -4 -43 -8 -78 -9 -78 -2 0
-29 17 -61 39 -188 124 -285 133 -270 24 6 -46 45 -129 95 -203 17 -25 31 -48
31 -51 0 -3 -57 -9 -127 -13 -249 -12 -393 -72 -353 -146 27 -50 258 -120 399
-120 25 0 51 -4 57 -8 8 -5 -7 -36 -47 -95 -70 -107 -94 -172 -79 -212 10 -26
13 -27 64 -23 58 5 128 35 221 97 l60 40 2 -47 c13 -248 64 -438 123 -457 68
-22 120 99 148 350 l17 145 69 -46 c256 -172 344 -96 182 156 -30 47 -53 86
-51 88 2 2 43 6 92 9 135 7 295 37 345 65 36 19 43 28 43 53 0 26 -7 34 -52
58 -53 28 -256 77 -323 77 -19 0 -51 3 -72 6 l-36 6 45 67 c53 76 93 161 93
196 0 79 -94 72 -251 -20 -41 -25 -79 -45 -82 -45 -4 0 -7 47 -7 104 0 260
-79 437 -158 353z m78 -51 c11 -24 26 -74 34 -112 16 -80 30 -284 22 -312 -7
-20 -24 -21 -208 -12 -13 0 -9 97 7 202 23 154 73 278 111 278 8 0 24 -20 34
-44z m-395 -311 c51 -22 200 -118 210 -136 3 -4 -15 -19 -39 -33 -24 -14 -62
-46 -84 -71 l-40 -45 -32 41 c-47 58 -120 205 -120 239 0 25 4 30 25 30 13 0
49 -11 80 -25z m779 -43 c-2 -37 -68 -158 -119 -217 -33 -38 -35 -39 -47 -20
-13 23 -85 93 -118 116 l-24 16 63 42 c86 58 180 101 216 98 27 -2 30 -5 29
-35z m-756 -309 c-6 -21 -8 -68 -5 -105 4 -64 3 -68 -17 -69 -163 -6 -387 43
-448 98 -17 15 -17 18 -2 34 37 41 206 77 371 78 l111 1 -10 -37z m869 1 c106
-18 208 -51 229 -75 15 -17 14 -19 -17 -38 -18 -11 -64 -27 -101 -36 -59 -13
-257 -34 -328 -35 l-25 0 0 106 -1 105 81 -6 c44 -4 117 -13 162 -21z m-746
-325 c59 -39 58 -40 -55 -108 -97 -59 -149 -81 -187 -81 -25 0 -29 4 -29 29 0
38 55 142 115 221 l47 61 30 -45 c16 -25 52 -60 79 -77z m522 64 c55 -75 105
-174 113 -220 6 -42 6 -43 -23 -43 -39 0 -154 57 -232 115 l-65 48 35 18 c36
18 119 101 119 119 0 22 20 8 53 -37z m-231 -214 c-5 -168 -44 -346 -84 -389
-19 -20 -21 -20 -39 -4 -41 37 -89 259 -89 414 l0 75 107 -1 108 -2 -3 -93z"/>
<path d="M4799 1823 c-9 -24 -255 -780 -384 -1183 -21 -63 -46 -131 -56 -151
-20 -40 -69 -69 -118 -69 -31 0 -31 0 -31 -55 l0 -55 241 0 240 0 -3 52 -3 53
-53 6 c-59 8 -98 29 -114 64 -8 19 -4 43 24 127 l35 103 220 3 220 2 32 -99
c31 -99 37 -137 23 -157 -13 -20 -56 -37 -111 -43 l-55 -6 -2 -53 -2 -52 329
0 329 0 0 55 0 55 -44 0 c-54 0 -91 27 -115 84 -10 23 -116 335 -236 694
l-218 652 -69 0 c-66 0 -69 -1 -79 -27z m119 -788 c28 -88 53 -170 57 -182 l6
-23 -180 0 c-100 0 -181 3 -181 8 0 7 164 512 176 542 7 16 36 -69 122 -345z"/>
<path d="M3090 1775 l0 -55 43 0 c59 0 103 -29 116 -77 16 -56 14 -1107 -2
-1153 -14 -41 -63 -70 -119 -70 l-38 0 0 -55 0 -55 423 0 c442 0 526 -6 562
-40 15 -14 35 -20 68 -20 l47 0 0 275 0 275 -48 0 -48 0 -18 -97 c-30 -164
-75 -232 -171 -263 -25 -9 -96 -14 -185 -14 l-145 -1 0 600 c0 330 3 613 8
628 10 37 61 67 115 67 l42 0 0 55 0 55 -325 0 -325 0 0 -55z"/>
<path d="M5600 1776 l0 -54 56 -4 c43 -4 61 -11 82 -32 l27 -26 2 -578 c2
-449 0 -583 -10 -602 -16 -32 -72 -60 -119 -60 l-38 0 0 -55 0 -55 331 0 330
0 -3 52 -3 53 -50 7 c-62 9 -90 23 -104 55 -8 17 -11 208 -11 633 l0 610 107
0 c127 0 175 -18 218 -81 41 -58 55 -127 55 -264 0 -136 -14 -206 -53 -262
-38 -54 -78 -75 -158 -81 l-69 -5 0 -53 0 -54 46 0 c124 0 208 -112 220 -294
8 -113 28 -171 79 -221 57 -58 132 -84 257 -92 l98 -6 0 56 c0 54 -1 57 -25
57 -32 0 -71 38 -92 88 -8 20 -19 80 -23 134 -12 150 -60 237 -166 300 -30 18
-54 36 -54 39 0 4 15 13 32 20 18 7 62 43 99 79 88 86 109 141 109 281 0 269
-116 421 -350 460 -30 5 -227 9 -437 9 l-383 0 0 -54z"/>
<path d="M8800 1775 l0 -55 44 0 c51 0 107 -33 117 -70 4 -14 7 -274 8 -578 1
-617 2 -610 -63 -637 -20 -8 -51 -15 -71 -15 l-35 0 0 -55 0 -55 331 0 331 0
-6 38 c-3 20 -5 44 -6 53 0 12 -13 18 -50 22 -57 7 -95 29 -104 60 -11 40 -7
1167 4 1188 15 27 63 49 110 49 22 0 40 3 41 8 0 4 1 28 2 55 l2 47 -327 0
-328 0 0 -55z"/>
<path d="M9582 1778 l3 -53 50 -6 c59 -7 89 -24 104 -56 8 -16 11 -211 11
-598 l0 -575 -27 -30 c-23 -26 -38 -32 -85 -37 l-58 -6 0 -53 0 -54 330 0 330
0 0 54 0 54 -56 4 c-43 4 -61 11 -82 32 l-27 26 -3 620 -2 620 107 0 c130 0
176 -17 222 -80 43 -60 54 -122 49 -295 -3 -139 -5 -154 -30 -200 -14 -27 -35
-58 -46 -68 -30 -28 -90 -46 -149 -47 l-53 0 0 -55 0 -55 44 0 c77 0 125 -28
171 -100 34 -54 45 -97 55 -208 7 -82 15 -113 37 -154 50 -93 137 -135 295
-145 l98 -6 0 56 c0 54 -1 57 -25 57 -59 0 -101 85 -113 226 -6 62 -16 116
-29 145 -27 61 -85 124 -146 159 l-49 28 28 18 c170 106 234 222 220 399 -16
202 -86 323 -221 386 -98 45 -150 49 -567 49 l-389 0 3 -52z"/>
</g>
</svg>
