<svg width="253" height="253" viewBox="0 0 253 253" fill="none" xmlns="http://www.w3.org/2000/svg">
<path d="M211.597 188.222C206.961 177.241 200.234 167.266 191.789 158.854C183.37 150.417 173.397 143.691 162.421 139.046C162.323 138.997 162.225 138.972 162.126 138.923C177.437 127.864 187.39 109.85 187.39 89.5261C187.39 55.8575 160.111 28.5785 126.442 28.5785C92.7738 28.5785 65.4948 55.8575 65.4948 89.5261C65.4948 109.85 75.4479 127.864 90.7586 138.948C90.6603 138.997 90.562 139.021 90.4637 139.071C79.4538 143.715 69.5744 150.375 61.0958 158.879C52.6592 167.297 45.9327 177.27 41.2878 188.246C36.7246 198.992 34.2636 210.513 34.038 222.185C34.0314 222.448 34.0774 222.709 34.1733 222.953C34.2691 223.197 34.4129 223.42 34.5961 223.608C34.7794 223.795 34.9983 223.945 35.2401 224.046C35.4819 224.148 35.7416 224.201 36.004 224.201H50.7494C51.8307 224.201 52.6909 223.34 52.7155 222.284C53.207 203.311 60.8254 185.543 74.2929 172.076C88.2273 158.141 106.733 150.474 126.442 150.474C146.152 150.474 164.658 158.141 178.592 172.076C192.059 185.543 199.678 203.311 200.169 222.284C200.194 223.365 201.054 224.201 202.135 224.201H216.881C217.143 224.201 217.403 224.148 217.645 224.046C217.886 223.945 218.105 223.795 218.289 223.608C218.472 223.42 218.616 223.197 218.712 222.953C218.807 222.709 218.853 222.448 218.847 222.185C218.601 210.438 216.168 199.011 211.597 188.222V188.222ZM126.442 131.796C115.162 131.796 104.545 127.397 96.5584 119.41C88.5713 111.423 84.1723 100.806 84.1723 89.5261C84.1723 78.2459 88.5713 67.6292 96.5584 59.6421C104.545 51.655 115.162 47.256 126.442 47.256C137.723 47.256 148.339 51.655 156.326 59.6421C164.313 67.6292 168.713 78.2459 168.713 89.5261C168.713 100.806 164.313 111.423 156.326 119.41C148.339 127.397 137.723 131.796 126.442 131.796Z" fill="white"/>
</svg>
