<svg width="186" height="196" viewBox="0 0 186 196" fill="none" xmlns="http://www.w3.org/2000/svg">
<path d="M177.983 159.66C173.347 148.679 166.619 138.704 158.175 130.292C149.756 121.855 139.783 115.129 128.807 110.484C128.708 110.435 128.61 110.41 128.512 110.361C143.822 99.302 153.775 81.288 153.775 60.964C153.775 27.2953 126.497 0.0163574 92.8279 0.0163574C59.1593 0.0163574 31.8803 27.2953 31.8803 60.964C31.8803 81.288 41.8334 99.302 57.1441 110.386C57.0458 110.435 56.9475 110.459 56.8492 110.508C45.8393 115.153 35.9599 121.813 27.4813 130.316C19.0447 138.735 12.3182 148.708 7.67328 159.684C3.11013 170.43 0.649118 181.951 0.423466 193.623C0.416907 193.886 0.462913 194.147 0.558775 194.391C0.654638 194.635 0.798416 194.858 0.981638 195.045C1.16486 195.233 1.38382 195.382 1.62561 195.484C1.86741 195.586 2.12714 195.639 2.38952 195.639H17.1349C18.2162 195.639 19.0764 194.778 19.101 193.722C19.5925 174.749 27.2109 156.981 40.6784 143.514C54.6128 129.579 73.1182 121.912 92.8279 121.912C112.538 121.912 131.043 129.579 144.977 143.514C158.445 156.981 166.063 174.749 166.555 193.722C166.579 194.803 167.44 195.639 168.521 195.639H183.266C183.529 195.639 183.788 195.586 184.03 195.484C184.272 195.382 184.491 195.233 184.674 195.045C184.857 194.858 185.001 194.635 185.097 194.391C185.193 194.147 185.239 193.886 185.232 193.623C184.987 181.876 182.554 170.448 177.983 159.66V159.66ZM92.8279 103.234C81.5477 103.234 70.931 98.835 62.9439 90.8479C54.9568 82.8609 50.5578 72.2442 50.5578 60.964C50.5578 49.6837 54.9568 39.0671 62.9439 31.08C70.931 23.0929 81.5477 18.6938 92.8279 18.6938C104.108 18.6938 114.725 23.0929 122.712 31.08C130.699 39.0671 135.098 49.6837 135.098 60.964C135.098 72.2442 130.699 82.8609 122.712 90.8479C114.725 98.835 104.108 103.234 92.8279 103.234Z" fill="black"/>
</svg>
